<svg width="152" height="41" viewBox="0 0 152 41" fill="none" xmlns="http://www.w3.org/2000/svg">
<path d="M1.59091 32V14.5455H7.68182V17.8636H7.86364C8.18182 16.6364 8.68561 15.7386 9.375 15.1705C10.072 14.6023 10.8864 14.3182 11.8182 14.3182C12.0909 14.3182 12.3598 14.3409 12.625 14.3864C12.8977 14.4242 13.1591 14.4811 13.4091 14.5568V19.9091C13.0985 19.803 12.7159 19.7235 12.2614 19.6705C11.8068 19.6174 11.4167 19.5909 11.0909 19.5909C10.4773 19.5909 9.92424 19.7311 9.43182 20.0114C8.94697 20.2841 8.56439 20.6705 8.28409 21.1705C8.00379 21.6629 7.86364 22.2424 7.86364 22.9091V32H1.59091Z" fill="white"/>
<path d="M75.5909 33V15.5455H81.5455V18.8636H81.7273C82.0909 17.7727 82.7121 16.9091 83.5909 16.2727C84.4697 15.6364 85.5152 15.3182 86.7273 15.3182C87.9545 15.3182 89.0114 15.6439 89.8977 16.2955C90.7841 16.9394 91.3182 17.7955 91.5 18.8636H91.6818C91.9773 17.7955 92.6061 16.9394 93.5682 16.2955C94.5303 15.6439 95.6591 15.3182 96.9545 15.3182C98.6288 15.3182 99.9848 15.8561 101.023 16.9318C102.068 18.0076 102.591 19.4394 102.591 21.2273V33H96.3182V22.8182C96.3182 22.053 96.125 21.4545 95.7386 21.0227C95.3523 20.5833 94.8333 20.3636 94.1818 20.3636C93.5379 20.3636 93.0265 20.5833 92.6477 21.0227C92.2765 21.4545 92.0909 22.053 92.0909 22.8182V33H86.0909V22.8182C86.0909 22.053 85.8977 21.4545 85.5114 21.0227C85.125 20.5833 84.6061 20.3636 83.9545 20.3636C83.5227 20.3636 83.1515 20.4621 82.8409 20.6591C82.5303 20.8561 82.2879 21.1402 82.1136 21.5114C81.947 21.875 81.8636 22.3106 81.8636 22.8182V33H75.5909ZM105.685 33V15.5455H111.957V33H105.685ZM108.821 13.7273C107.973 13.7273 107.245 13.447 106.639 12.8864C106.033 12.3258 105.73 11.6515 105.73 10.8636C105.73 10.0758 106.033 9.40151 106.639 8.84091C107.245 8.2803 107.973 8 108.821 8C109.677 8 110.404 8.2803 111.003 8.84091C111.609 9.40151 111.912 10.0758 111.912 10.8636C111.912 11.6515 111.609 12.3258 111.003 12.8864C110.404 13.447 109.677 13.7273 108.821 13.7273ZM123.517 33.3182C121.653 33.3182 120.047 32.9621 118.699 32.25C117.358 31.5303 116.324 30.5 115.597 29.1591C114.877 27.8106 114.517 26.197 114.517 24.3182C114.517 22.5152 114.881 20.9394 115.608 19.5909C116.335 18.2424 117.362 17.1932 118.688 16.4432C120.013 15.6932 121.578 15.3182 123.381 15.3182C124.699 15.3182 125.892 15.5227 126.96 15.9318C128.028 16.3409 128.941 16.9356 129.699 17.7159C130.456 18.4886 131.04 19.428 131.449 20.5341C131.858 21.6402 132.062 22.8864 132.062 24.2727V25.7273H116.472V22.2727H126.29C126.282 21.7727 126.153 21.3333 125.903 20.9545C125.661 20.5682 125.331 20.2689 124.915 20.0568C124.506 19.8371 124.04 19.7273 123.517 19.7273C123.009 19.7273 122.544 19.8371 122.119 20.0568C121.695 20.2689 121.354 20.5644 121.097 20.9432C120.847 21.322 120.714 21.7652 120.699 22.2727V26C120.699 26.5606 120.816 27.0606 121.051 27.5C121.286 27.9394 121.623 28.2841 122.062 28.5341C122.502 28.7841 123.032 28.9091 123.653 28.9091C124.085 28.9091 124.479 28.8485 124.835 28.7273C125.199 28.6061 125.509 28.4318 125.767 28.2045C126.025 27.9697 126.214 27.6894 126.335 27.3636H132.062C131.866 28.5758 131.4 29.6288 130.665 30.5227C129.93 31.4091 128.956 32.0985 127.744 32.5909C126.54 33.0758 125.131 33.3182 123.517 33.3182ZM150.577 21.2273H144.804C144.774 20.8712 144.649 20.5644 144.429 20.3068C144.209 20.0492 143.925 19.8523 143.577 19.7159C143.236 19.572 142.857 19.5 142.44 19.5C141.902 19.5 141.44 19.5985 141.054 19.7955C140.668 19.9924 140.478 20.2727 140.486 20.6364C140.478 20.8939 140.588 21.1326 140.815 21.3523C141.05 21.572 141.501 21.7424 142.168 21.8636L145.713 22.5C147.501 22.8258 148.83 23.375 149.702 24.1477C150.58 24.9129 151.024 25.9394 151.031 27.2273C151.024 28.4697 150.652 29.5492 149.918 30.4659C149.19 31.375 148.194 32.0795 146.929 32.5795C145.671 33.072 144.236 33.3182 142.622 33.3182C139.955 33.3182 137.868 32.7727 136.361 31.6818C134.861 30.5909 134.024 29.1515 133.849 27.3636H140.077C140.16 27.9167 140.433 28.3447 140.895 28.6477C141.365 28.9432 141.955 29.0909 142.668 29.0909C143.243 29.0909 143.717 28.9924 144.088 28.7955C144.467 28.5985 144.66 28.3182 144.668 27.9545C144.66 27.6212 144.493 27.3561 144.168 27.1591C143.849 26.9621 143.349 26.803 142.668 26.6818L139.577 26.1364C137.796 25.8258 136.463 25.2348 135.577 24.3636C134.69 23.4924 134.251 22.3712 134.259 21C134.251 19.7879 134.569 18.7614 135.213 17.9205C135.865 17.072 136.793 16.428 137.997 15.9886C139.209 15.5417 140.645 15.3182 142.304 15.3182C144.827 15.3182 146.815 15.8409 148.27 16.8864C149.732 17.9318 150.501 19.3788 150.577 21.2273Z" fill="white"/>
<path d="M18.9219 30.9531C16.9635 29.776 15.9844 27.9896 15.9844 25.5938C15.9844 24.3438 16.2396 23.1719 16.75 22.0781C17.2708 20.974 17.9792 20.0208 18.875 19.2188C19.7812 18.4167 20.8333 17.7292 22.0312 17.1562C24.4271 16 27.1719 15.4219 30.2656 15.4219C36.349 15.4219 39.6354 17.349 40.125 21.2031C40.8542 21.4427 41.6042 21.5625 42.375 21.5625C43.1562 21.5625 43.8073 21.5052 44.3281 21.3906C44.849 21.276 45.3385 21.1042 45.7969 20.875C46.2656 20.6458 46.599 20.5312 46.7969 20.5312C47.1927 20.5312 47.3906 20.724 47.3906 21.1094C47.3906 21.4948 47.0833 21.8958 46.4688 22.3125C45.3125 23.1042 43.7812 23.5 41.875 23.5C41.1562 23.5 40.5729 23.4635 40.125 23.3906C39.7917 26.0156 38.4375 28.1979 36.0625 29.9375C34.9271 30.7708 33.5312 31.4271 31.875 31.9062C30.2292 32.3854 28.5208 32.625 26.75 32.625C24.9896 32.625 23.4792 32.4844 22.2188 32.2031C20.9583 31.9323 19.8594 31.5156 18.9219 30.9531ZM24.5938 26.9688C24.5938 28.8958 25.2969 29.8594 26.7031 29.8594C27.599 29.8594 28.4323 29.3698 29.2031 28.3906C29.9844 27.4115 30.5885 26.1979 31.0156 24.75C31.4531 23.3021 31.6719 21.8281 31.6719 20.3281C31.6719 18.8177 31.1458 18.0625 30.0938 18.0625C29.1771 18.0625 28.2865 18.4948 27.4219 19.3594C26.5677 20.224 25.8802 21.349 25.3594 22.7344C24.849 24.1094 24.5938 25.5208 24.5938 26.9688ZM45.6094 30.9531C43.651 29.776 42.6719 27.9896 42.6719 25.5938C42.6719 24.3438 42.9271 23.1719 43.4375 22.0781C43.9583 20.974 44.6667 20.0208 45.5625 19.2188C46.4688 18.4167 47.5208 17.7292 48.7188 17.1562C51.1146 16 53.8594 15.4219 56.9531 15.4219C63.0365 15.4219 66.3229 17.349 66.8125 21.2031C67.5417 21.4427 68.2917 21.5625 69.0625 21.5625C69.8438 21.5625 70.4948 21.5052 71.0156 21.3906C71.5365 21.276 72.026 21.1042 72.4844 20.875C72.9531 20.6458 73.2865 20.5312 73.4844 20.5312C73.8802 20.5312 74.0781 20.724 74.0781 21.1094C74.0781 21.4948 73.7708 21.8958 73.1562 22.3125C72 23.1042 70.4688 23.5 68.5625 23.5C67.8438 23.5 67.2604 23.4635 66.8125 23.3906C66.4792 26.0156 65.125 28.1979 62.75 29.9375C61.6146 30.7708 60.2188 31.4271 58.5625 31.9062C56.9167 32.3854 55.2083 32.625 53.4375 32.625C51.6771 32.625 50.1667 32.4844 48.9062 32.2031C47.6458 31.9323 46.5469 31.5156 45.6094 30.9531ZM51.2812 26.9688C51.2812 28.8958 51.9844 29.8594 53.3906 29.8594C54.2865 29.8594 55.1198 29.3698 55.8906 28.3906C56.6719 27.4115 57.276 26.1979 57.7031 24.75C58.1406 23.3021 58.3594 21.8281 58.3594 20.3281C58.3594 18.8177 57.8333 18.0625 56.7812 18.0625C55.8646 18.0625 54.974 18.4948 54.1094 19.3594C53.2552 20.224 52.5677 21.349 52.0469 22.7344C51.5365 24.1094 51.2812 25.5208 51.2812 26.9688Z" fill="#16123F"/>
</svg>
